<svg id="visual" viewBox="0 0 900 450" width="900" height="450" xmlns="http://www.w3.org/2000/svg" xmlns:xlink="http://www.w3.org/1999/xlink" version="1.1"><rect width="900" height="450" fill="#ffffff"></rect><g><g transform="translate(666 313)"><path d="M60.6 -69.7C79.6 -56.4 96.5 -38.2 104 -15.5C111.4 7.3 109.3 34.6 95.4 51.6C81.4 68.6 55.6 75.3 30.7 84.3C5.8 93.3 -18.2 104.6 -37.4 99.2C-56.7 93.8 -71.3 71.7 -73.8 50.7C-76.3 29.7 -66.7 9.8 -64 -12.3C-61.4 -34.5 -65.7 -58.9 -56.1 -73.9C-46.6 -88.9 -23.3 -94.5 -1.2 -93.1C20.9 -91.6 41.7 -83.1 60.6 -69.7Z" fill="#F9F871"></path></g><g transform="translate(163 256)"><path d="M39.7 -37.4C57.1 -32.7 80.8 -25.5 90.5 -10.1C100.2 5.3 95.8 29.1 84.2 48C72.5 66.8 53.5 80.9 34.7 81.9C15.9 82.9 -2.8 70.9 -22.6 63.2C-42.5 55.5 -63.5 52.2 -69.5 40.7C-75.5 29.2 -66.4 9.5 -60 -7.8C-53.6 -25.1 -50 -40.1 -40.4 -46.3C-30.9 -52.4 -15.4 -49.6 -2.1 -47C11.1 -44.5 22.3 -42.1 39.7 -37.4Z" fill="#F9F871"></path></g><g transform="translate(431 144)"><path d="M50.3 -65.4C63.3 -49 70.8 -31.4 70.5 -15.1C70.2 1.2 62.1 16.2 53.2 30.1C44.4 44 34.9 56.9 23 59.7C11.1 62.5 -3.2 55.3 -13.6 47.2C-24 39.1 -30.5 30.2 -45.9 19C-61.3 7.8 -85.6 -5.8 -90.8 -22.9C-96.1 -40.1 -82.2 -60.8 -63.9 -76.3C-45.6 -91.8 -22.8 -102.2 -2.1 -99.7C18.6 -97.2 37.2 -81.9 50.3 -65.4Z" fill="#F9F871"></path></g></g></svg>