<?xml version="1.0" standalone="no"?>
<svg viewBox="0 0 200 200" xmlns="http://www.w3.org/2000/svg">
  <path fill="#F9F871" d="M36.3,-61.4C49.5,-55.2,64.3,-50.5,66.2,-40.5C68,-30.5,56.7,-15.2,50.6,-3.5C44.4,8.2,43.4,16.3,43.3,29.3C43.2,42.2,44,59.9,37,68.8C29.9,77.6,14.9,77.6,3.6,71.4C-7.8,65.2,-15.6,52.8,-25.3,45.5C-35.1,38.2,-46.8,36,-53.1,29.2C-59.5,22.5,-60.6,11.3,-64,-2C-67.4,-15.2,-73.2,-30.4,-70.1,-42.7C-66.9,-55,-54.8,-64.5,-41.6,-70.6C-28.4,-76.8,-14.2,-79.7,-1.3,-77.3C11.5,-75,23.1,-67.5,36.3,-61.4Z" transform="translate(100 100)" />
</svg>
