<svg id="visual" viewBox="0 0 900 450" width="900" height="450" xmlns="http://www.w3.org/2000/svg" xmlns:xlink="http://www.w3.org/1999/xlink" version="1.1"><rect width="900" height="450" fill="#ffffff"></rect><g><g transform="translate(263 129)"><path d="M38.3 -53C49.6 -36.2 58.8 -24.1 68 -6.8C77.3 10.5 86.5 32.9 78.1 42.7C69.6 52.6 43.3 49.8 22.1 54.9C0.9 60.1 -15.2 73.1 -33.7 74.3C-52.1 75.5 -72.9 64.8 -88.1 46.8C-103.3 28.8 -113 3.6 -105.5 -15.1C-98.1 -33.8 -73.4 -46 -53 -61.2C-32.5 -76.4 -16.3 -94.7 -1.4 -93.1C13.5 -91.4 27 -69.8 38.3 -53Z" fill="#F9F871"></path></g><g transform="translate(770 251)"><path d="M26.3 -33.2C33.4 -25.5 37.8 -16.5 38.7 -7.4C39.6 1.7 37.1 10.8 32.7 19.3C28.3 27.8 22 35.6 12.7 42.2C3.3 48.8 -9.2 54.2 -16.3 49.5C-23.4 44.9 -25 30.1 -28.4 19C-31.8 7.8 -36.9 0.2 -35.8 -6.3C-34.6 -12.7 -27.1 -18 -20 -25.7C-13 -33.5 -6.5 -43.6 1.6 -45.5C9.7 -47.4 19.3 -41 26.3 -33.2Z" fill="#F9F871"></path></g><g transform="translate(477 287)"><path d="M61.8 -74.2C75.4 -62.4 78.3 -38.3 80.6 -15.6C82.9 7.1 84.6 28.4 75.1 41.8C65.6 55.2 44.8 60.7 23.8 70.6C2.8 80.5 -18.5 94.9 -35 91.1C-51.4 87.2 -63.1 65.2 -67.4 45C-71.8 24.9 -68.9 6.6 -64 -9.6C-59.1 -25.8 -52.3 -40.1 -41.3 -52.4C-30.4 -64.7 -15.2 -75.1 4.5 -80.4C24.2 -85.8 48.3 -86.1 61.8 -74.2Z" fill="#F9F871"></path></g></g></svg>