<svg id="visual" viewBox="0 0 900 450" width="900" height="450" xmlns="http://www.w3.org/2000/svg" xmlns:xlink="http://www.w3.org/1999/xlink" version="1.1"><rect width="900" height="450" fill="#ffffff"></rect><g><g transform="translate(441 167)"><path d="M46.5 -54.8C63 -41.6 80.9 -29.5 85.3 -13.7C89.8 2.2 80.7 21.8 70.8 42.7C60.9 63.5 50.1 85.7 31.2 97.7C12.4 109.6 -14.4 111.5 -34.1 101.1C-53.8 90.7 -66.4 68.1 -76.6 46.2C-86.8 24.3 -94.7 3.1 -89.8 -14.3C-84.9 -31.7 -67.2 -45.4 -50.1 -58.4C-33 -71.5 -16.5 -84.1 -0.7 -83.2C15 -82.3 30 -68 46.5 -54.8Z" fill="#F9F871"></path></g><g transform="translate(694 137)"><path d="M52.4 -63.7C62.2 -54.1 60.6 -32.3 59.8 -13.9C59 4.4 59.1 19.3 53.5 32.7C47.9 46 36.7 57.9 21.3 67.3C6 76.6 -13.4 83.3 -30.6 79.2C-47.9 75.1 -63.1 60.1 -69 43.1C-75 26.1 -71.8 7 -64.2 -7C-56.6 -21.1 -44.7 -30 -33.2 -39.3C-21.8 -48.6 -10.9 -58.2 5.2 -64.3C21.3 -70.5 42.5 -73.3 52.4 -63.7Z" fill="#F9F871"></path></g><g transform="translate(225 313)"><path d="M55.1 -63.4C70.3 -53 80.6 -34.5 85.8 -13.8C90.9 6.8 91 29.7 80.1 44.2C69.3 58.7 47.5 64.7 28 68C8.4 71.3 -8.9 71.7 -24.8 66.6C-40.7 61.5 -55.1 50.9 -62.1 36.8C-69.1 22.8 -68.6 5.4 -68.5 -15.1C-68.5 -35.5 -68.9 -59.1 -57.5 -70.2C-46.2 -81.3 -23.1 -80.1 -1.6 -78.2C20 -76.3 40 -73.9 55.1 -63.4Z" fill="#F9F871"></path></g></g></svg>