<?xml version="1.0" standalone="no"?><svg xmlns="http://www.w3.org/2000/svg" viewBox="0 0 1440 320"><path fill="#F9F871" fill-opacity="1" d="M0,288L20,250.7C40,213,80,139,120,133.3C160,128,200,192,240,186.7C280,181,320,107,360,69.3C400,32,440,32,480,42.7C520,53,560,75,600,90.7C640,107,680,117,720,122.7C760,128,800,128,840,154.7C880,181,920,235,960,229.3C1000,224,1040,160,1080,160C1120,160,1160,224,1200,256C1240,288,1280,288,1320,282.7C1360,277,1400,267,1420,261.3L1440,256L1440,0L1420,0C1400,0,1360,0,1320,0C1280,0,1240,0,1200,0C1160,0,1120,0,1080,0C1040,0,1000,0,960,0C920,0,880,0,840,0C800,0,760,0,720,0C680,0,640,0,600,0C560,0,520,0,480,0C440,0,400,0,360,0C320,0,280,0,240,0C200,0,160,0,120,0C80,0,40,0,20,0L0,0Z"></path></svg>