<?xml version="1.0" standalone="no"?><svg xmlns="http://www.w3.org/2000/svg" viewBox="0 0 1440 320"><path fill="#F9F871" fill-opacity="1" d="M0,64L20,101.3C40,139,80,213,120,240C160,267,200,245,240,229.3C280,213,320,203,360,181.3C400,160,440,128,480,133.3C520,139,560,181,600,181.3C640,181,680,139,720,154.7C760,171,800,245,840,240C880,235,920,149,960,122.7C1000,96,1040,128,1080,122.7C1120,117,1160,75,1200,69.3C1240,64,1280,96,1320,101.3C1360,107,1400,85,1420,74.7L1440,64L1440,320L1420,320C1400,320,1360,320,1320,320C1280,320,1240,320,1200,320C1160,320,1120,320,1080,320C1040,320,1000,320,960,320C920,320,880,320,840,320C800,320,760,320,720,320C680,320,640,320,600,320C560,320,520,320,480,320C440,320,400,320,360,320C320,320,280,320,240,320C200,320,160,320,120,320C80,320,40,320,20,320L0,320Z"></path></svg>